<?xml version="1.0" encoding="utf-8"?>
<svg version="1.1" id="Layer_1"
    xmlns="http://www.w3.org/2000/svg"
    xmlns:xlink="http://www.w3.org/1999/xlink" x="0px" y="0px" viewBox="0 0 114.27 122.88"  xml:space="preserve">
    <g>
        <path stroke="#000000" fill="#000000" d="M67.09,70.54l-1.67-1.74L38.73,96.13L23.44,87.3l30.52-32.48c0.06-0.09,0.14-0.18,0.22-0.26c0.03-0.03,0.07-0.06,0.1-0.09 l57.05-53.99c0.7-0.66,1.8-0.63,2.46,0.07c0.46,0.49,0.59,1.18,0.38,1.77l0,0c-4.31,12.24-9.38,23.48-15.27,33.44 c-5.65,9.56-12.07,17.96-19.31,24.98l0,0l-9.92,9.92c-0.68,0.68-1.79,0.68-2.48,0C67.16,70.62,67.12,70.58,67.09,70.54L67.09,70.54 z M35.82,99.09l-5.07,5.17l-15.43-8.91l5.16-5.12L35.82,99.09L35.82,99.09z M27.84,107.22l-14.16,14.43 c-5.54,3.84-15.34-1.93-13.43-9.56c0.68-2.73,2.04-3.82,3.96-5.73l8.16-8.09L27.84,107.22L27.84,107.22z M57.87,55.88l10.59,11.05 l8.66-8.66l0,0l0.02-0.02c7.02-6.8,13.25-14.97,18.76-24.27c4.64-7.85,8.77-16.51,12.4-25.83L57.87,55.88L57.87,55.88z"/>
    </g>
</svg>